{
  "accessors": [
    {
      "bufferView": 3,
      "componentType": 5126,
      "count": 24,
      "max": [
        1.0,
        1.0,
        1.0
      ],
      "min": [
        -1.0,
        -1.0,
        -1.0
      ],
      "type": "VEC3"
    },
    {
      "bufferView": 3,
      "byteOffset": 288,
      "componentType": 5126,
      "count": 24,
      "max": [
        1.0,
        1.0,
        1.0
      ],
      "min": [
        -1.0,
        -1.0,
        -1.0
      ],
      "type": "VEC3"
    },
    {
      "bufferView": 2,
      "componentType": 5126,
      "count": 24,
      "max": [
        0.875,
        1.0
      ],
      "min": [
        0.125,
        0.0
      ],
      "type": "VEC2"
    },
    {
      "bufferView": 1,
      "componentType": 5125,
      "count": 36,
      "type": "SCALAR"
    },
    {
      "bufferView": 3,
      "byteOffset": 576,
      "componentType": 5126,
      "count": 31828,
      "max": [
        13.781750679016113,
        19.98116111755371,
        5.995778560638428
      ],
      "min": [
        -12.305364608764648,
        -12.890149116516113,
        -10.343291282653809
      ],
      "type": "VEC3"
    },
    {
      "bufferView": 3,
      "byteOffset": 382512,
      "componentType": 5126,
      "count": 31828,
      "max": [
        1.0,
        1.0,
        1.0
      ],
      "min": [
        -1.0,
        -1.0,
        -1.0
      ],
      "type": "VEC3"
    },
    {
      "bufferView": 2,
      "byteOffset": 192,
      "componentType": 5126,
      "count": 31828,
      "max": [
        0.9944942593574524,
        0.9907624125480652
      ],
      "min": [
        0.011577367782592773,
        0.005941957235336304
      ],
      "type": "VEC2"
    },
    {
      "bufferView": 1,
      "byteOffset": 144,
      "componentType": 5125,
      "count": 49230,
      "type": "SCALAR"
    },
    {
      "bufferView": 5,
      "componentType": 5126,
      "count": 23,
      "max": [
        1.0,
        1.0,
        1.0,
        0.0,
        1.0000001192092896,
        1.0,
        0.9997888803482056,
        0.0,
        1.0,
        0.9803314805030823,
        1.0000001192092896,
        0.0,
        3.5164122581481934,
        2.538756847381592,
        9.904584884643555,
        1.0
      ],
      "min": [
        -0.9999953508377075,
        -1.000000238418579,
        0.0,
        0.0,
        -1.0,
        -2.2499508922635414e-09,
        -1.0,
        0.0,
        -1.0,
        -1.0,
        -0.015609769150614738,
        0.0,
        -5.877951622009277,
        -19.757783889770508,
        -9.996925354003906,
        1.0
      ],
      "type": "MAT4"
    },
    {
      "bufferView": 0,
      "componentType": 5123,
      "count": 31828,
      "type": "VEC4"
    },
    {
      "bufferView": 4,
      "componentType": 5126,
      "count": 31828,
      "max": [
        1.0,
        0.01060193870216608,
        0.0,
        0.0
      ],
      "min": [
        0.9893980026245117,
        0.0,
        0.0,
        0.0
      ],
      "type": "VEC4"
    },
    {
      "bufferView": 6,
      "componentType": 5126,
      "count": 79,
      "max": [
        3.2916667461395264
      ],
      "min": [
        0.0416666679084301
      ],
      "type": "SCALAR"
    },
    {
      "bufferView": 8,
      "componentType": 5126,
      "count": 79,
      "max": [
        0.7772632241249084,
        -3.336769225370517e-07,
        -3.2751643175288336e-07,
        0.7675324082374573
      ],
      "min": [
        0.6410101652145386,
        -4.046032699989155e-07,
        -3.995378676791006e-07,
        0.6291755437850952
      ],
      "type": "VEC4"
    },
    {
      "bufferView": 6,
      "byteOffset": 316,
      "componentType": 5126,
      "count": 48,
      "max": [
        3.2916667461395264
      ],
      "min": [
        0.0416666679084301
      ],
      "type": "SCALAR"
    },
    {
      "bufferView": 7,
      "componentType": 5126,
      "count": 48,
      "max": [
        1.0,
        1.0,
        1.0
      ],
      "min": [
        1.0,
        0.9999999403953552,
        0.9999999403953552
      ],
      "type": "VEC3"
    },
    {
      "bufferView": 6,
      "byteOffset": 508,
      "componentType": 5126,
      "count": 79,
      "max": [
        3.2916667461395264
      ],
      "min": [
        0.0416666679084301
      ],
      "type": "SCALAR"
    },
    {
      "bufferView": 8,
      "byteOffset": 1264,
      "componentType": 5126,
      "count": 79,
      "max": [
        0.7976338267326355,
        -2.444656388433941e-07,
        -2.42064601252423e-07,
        0.7930744886398315
      ],
      "min": [
        0.6091246604919434,
        -3.2012184192353743e-07,
        -3.1829199542698916e-07,
        0.6031420826911926
      ],
      "type": "VEC4"
    },
    {
      "bufferView": 6,
      "byteOffset": 824,
      "componentType": 5126,
      "count": 43,
      "max": [
        3.2916667461395264
      ],
      "min": [
        0.0416666679084301
      ],
      "type": "SCALAR"
    },
    {
      "bufferView": 7,
      "byteOffset": 576,
      "componentType": 5126,
      "count": 43,
      "max": [
        1.0,
        1.0,
        1.0
      ],
      "min": [
        1.0,
        0.9999999403953552,
        0.9999999403953552
      ],
      "type": "VEC3"
    },
    {
      "bufferView": 6,
      "byteOffset": 996,
      "componentType": 5126,
      "count": 79,
      "max": [
        3.2916667461395264
      ],
      "min": [
        0.0416666679084301
      ],
      "type": "SCALAR"
    },
    {
      "bufferView": 8,
      "byteOffset": 2528,
      "componentType": 5126,
      "count": 79,
      "max": [
        0.7071066498756409,
        0.70710688829422,
        8.850976485064166e-08,
        0.7115117907524109
      ],
      "min": [
        -0.7057884335517883,
        -0.7041449546813965,
        -0.7071067690849304,
        1.4189487274052226e-07
      ],
      "type": "VEC4"
    },
    {
      "bufferView": 6,
      "byteOffset": 1312,
      "componentType": 5126,
      "count": 75,
      "max": [
        3.2916667461395264
      ],
      "min": [
        0.0416666679084301
      ],
      "type": "SCALAR"
    },
    {
      "bufferView": 7,
      "byteOffset": 1092,
      "componentType": 5126,
      "count": 75,
      "max": [
        1.000000238418579,
        1.0,
        1.000000238418579
      ],
      "min": [
        0.9999996423721313,
        0.9999999403953552,
        0.9999996423721313
      ],
      "type": "VEC3"
    },
    {
      "bufferView": 6,
      "byteOffset": 1612,
      "componentType": 5126,
      "count": 44,
      "max": [
        3.2916667461395264
      ],
      "min": [
        0.0416666679084301
      ],
      "type": "SCALAR"
    },
    {
      "bufferView": 7,
      "byteOffset": 1992,
      "componentType": 5126,
      "count": 44,
      "max": [
        0.9187902808189392,
        -24.22823143005371,
        3.898867607116699
      ],
      "min": [
        0.9187901616096497,
        -24.228233337402344,
        3.8988656997680664
      ],
      "type": "VEC3"
    },
    {
      "bufferView": 6,
      "byteOffset": 1788,
      "componentType": 5126,
      "count": 79,
      "max": [
        3.2916667461395264
      ],
      "min": [
        0.0416666679084301
      ],
      "type": "SCALAR"
    },
    {
      "bufferView": 8,
      "byteOffset": 3792,
      "componentType": 5126,
      "count": 79,
      "max": [
        0.7277438640594482,
        0.6858490705490112,
        9.267444767147026e-08,
        0.7071067690849304
      ],
      "min": [
        -0.714045524597168,
        -0.6830616593360901,
        -0.7115716338157654,
        1.3921059860422247e-07
      ],
      "type": "VEC4"
    },
    {
      "bufferView": 6,
      "byteOffset": 2104,
      "componentType": 5126,
      "count": 75,
      "max": [
        3.2916667461395264
      ],
      "min": [
        0.0416666679084301
      ],
      "type": "SCALAR"
    },
    {
      "bufferView": 7,
      "byteOffset": 2520,
      "componentType": 5126,
      "count": 75,
      "max": [
        1.0000003576278687,
        1.0,
        1.0000004768371582
      ],
      "min": [
        0.9999996423721313,
        0.9999999403953552,
        0.9999996423721313
      ],
      "type": "VEC3"
    },
    {
      "bufferView": 6,
      "byteOffset": 2404,
      "componentType": 5126,
      "count": 79,
      "max": [
        3.2916667461395264
      ],
      "min": [
        0.0416666679084301
      ],
      "type": "SCALAR"
    },
    {
      "bufferView": 8,
      "byteOffset": 5056,
      "componentType": 5126,
      "count": 79,
      "max": [
        0.682580292224884,
        0.7308106422424316,
        -4.2760532892316405e-08,
        0.7090233564376831
      ],
      "min": [
        -0.6824261546134949,
        -0.7299124598503113,
        -0.7071067690849304,
        9.521372135168349e-09
      ],
      "type": "VEC4"
    },
    {
      "bufferView": 6,
      "byteOffset": 2720,
      "componentType": 5126,
      "count": 78,
      "max": [
        3.2916667461395264
      ],
      "min": [
        0.0416666679084301
      ],
      "type": "SCALAR"
    },
    {
      "bufferView": 7,
      "byteOffset": 3420,
      "componentType": 5126,
      "count": 78,
      "max": [
        1.0000004768371582,
        1.0,
        1.0000004768371582
      ],
      "min": [
        0.9999995827674866,
        0.9999999403953552,
        0.9999996423721313
      ],
      "type": "VEC3"
    },
    {
      "bufferView": 6,
      "byteOffset": 3032,
      "componentType": 5126,
      "count": 79,
      "max": [
        3.2916667461395264
      ],
      "min": [
        0.0416666679084301
      ],
      "type": "SCALAR"
    },
    {
      "bufferView": 7,
      "byteOffset": 4356,
      "componentType": 5126,
      "count": 79,
      "max": [
        3.1579456329345703,
        -21.377613067626953,
        2.5954055786132813
      ],
      "min": [
        3.1579456329345703,
        -21.74696922302246,
        2.5954055786132813
      ],
      "type": "VEC3"
    },
    {
      "bufferView": 6,
      "byteOffset": 3348,
      "componentType": 5126,
      "count": 79,
      "max": [
        3.2916667461395264
      ],
      "min": [
        0.0416666679084301
      ],
      "type": "SCALAR"
    },
    {
      "bufferView": 8,
      "byteOffset": 6320,
      "componentType": 5126,
      "count": 79,
      "max": [
        0.3702046573162079,
        0.025144096463918686,
        0.9281441569328308,
        0.9993771314620972
      ],
      "min": [
        -0.3704053461551666,
        -0.04413728788495064,
        -0.9276413321495056,
        0.024321094155311584
      ],
      "type": "VEC4"
    },
    {
      "bufferView": 6,
      "byteOffset": 3664,
      "componentType": 5126,
      "count": 78,
      "max": [
        3.2916667461395264
      ],
      "min": [
        0.0416666679084301
      ],
      "type": "SCALAR"
    },
    {
      "bufferView": 7,
      "byteOffset": 5304,
      "componentType": 5126,
      "count": 78,
      "max": [
        1.000000238418579,
        1.000000238418579,
        1.0
      ],
      "min": [
        0.9999997615814209,
        0.9999997019767761,
        0.9999999403953552
      ],
      "type": "VEC3"
    },
    {
      "bufferView": 6,
      "byteOffset": 3976,
      "componentType": 5126,
      "count": 79,
      "max": [
        3.2916667461395264
      ],
      "min": [
        0.0416666679084301
      ],
      "type": "SCALAR"
    },
    {
      "bufferView": 8,
      "byteOffset": 7584,
      "componentType": 5126,
      "count": 79,
      "max": [
        -0.4590510129928589,
        -0.4497744143009186,
        0.5456213355064392,
        0.537840723991394
      ],
      "min": [
        -0.5456216335296631,
        -0.5378402471542358,
        0.4590505361557007,
        0.44977492094039917
      ],
      "type": "VEC4"
    },
    {
      "bufferView": 6,
      "byteOffset": 4292,
      "componentType": 5126,
      "count": 52,
      "max": [
        3.2916667461395264
      ],
      "min": [
        0.0416666679084301
      ],
      "type": "SCALAR"
    },
    {
      "bufferView": 7,
      "byteOffset": 6240,
      "componentType": 5126,
      "count": 52,
      "max": [
        0.9999998807907104,
        0.9999997615814209,
        0.9999998807907104
      ],
      "min": [
        0.9999998211860657,
        0.9999997019767761,
        0.9999998807907104
      ],
      "type": "VEC3"
    },
    {
      "bufferView": 6,
      "byteOffset": 4500,
      "componentType": 5126,
      "count": 79,
      "max": [
        3.2916667461395264
      ],
      "min": [
        0.0416666679084301
      ],
      "type": "SCALAR"
    },
    {
      "bufferView": 8,
      "byteOffset": 8848,
      "componentType": 5126,
      "count": 79,
      "max": [
        -1.2268732518805336e-07,
        -0.5700348615646362,
        0.821620523929596,
        3.3341027005917567e-07
      ],
      "min": [
        -2.2412608302602166e-07,
        -0.8055592179298401,
        0.592515230178833,
        2.75648460501543e-07
      ],
      "type": "VEC4"
    },
    {
      "bufferView": 6,
      "byteOffset": 4816,
      "componentType": 5126,
      "count": 43,
      "max": [
        3.2916667461395264
      ],
      "min": [
        0.0416666679084301
      ],
      "type": "SCALAR"
    },
    {
      "bufferView": 7,
      "byteOffset": 6864,
      "componentType": 5126,
      "count": 43,
      "max": [
        1.0,
        1.0,
        1.0
      ],
      "min": [
        1.0,
        0.9999999403953552,
        0.9999999403953552
      ],
      "type": "VEC3"
    },
    {
      "bufferView": 6,
      "byteOffset": 4988,
      "componentType": 5126,
      "count": 79,
      "max": [
        3.2916667461395264
      ],
      "min": [
        0.0416666679084301
      ],
      "type": "SCALAR"
    },
    {
      "bufferView": 8,
      "byteOffset": 10112,
      "componentType": 5126,
      "count": 79,
      "max": [
        0.7068901658058167,
        0.7068901658058167,
        0.01750037632882595,
        0.7065860629081726
      ],
      "min": [
        -0.7026899456977844,
        -0.7054820656776428,
        -0.7065860033035278,
        0.017500871792435646
      ],
      "type": "VEC4"
    },
    {
      "bufferView": 6,
      "byteOffset": 5304,
      "componentType": 5126,
      "count": 70,
      "max": [
        3.2916667461395264
      ],
      "min": [
        0.0416666679084301
      ],
      "type": "SCALAR"
    },
    {
      "bufferView": 7,
      "byteOffset": 7380,
      "componentType": 5126,
      "count": 70,
      "max": [
        1.0000003576278687,
        1.000000238418579,
        1.0000004768371582
      ],
      "min": [
        0.9999995827674866,
        0.9999999403953552,
        0.9999996423721313
      ],
      "type": "VEC3"
    },
    {
      "bufferView": 6,
      "byteOffset": 5584,
      "componentType": 5126,
      "count": 79,
      "max": [
        3.2916667461395264
      ],
      "min": [
        0.0416666679084301
      ],
      "type": "SCALAR"
    },
    {
      "bufferView": 8,
      "byteOffset": 11376,
      "componentType": 5126,
      "count": 79,
      "max": [
        0.6931482553482056,
        0.6927292943000793,
        0.019759027287364006,
        0.7253304719924927
      ],
      "min": [
        -0.706830620765686,
        -0.7068306803703308,
        -0.6883991956710815,
        0.019758570939302444
      ],
      "type": "VEC4"
    },
    {
      "bufferView": 6,
      "byteOffset": 5900,
      "componentType": 5126,
      "count": 78,
      "max": [
        3.2916667461395264
      ],
      "min": [
        0.0416666679084301
      ],
      "type": "SCALAR"
    },
    {
      "bufferView": 7,
      "byteOffset": 8220,
      "componentType": 5126,
      "count": 78,
      "max": [
        1.000000238418579,
        1.0,
        1.000000238418579
      ],
      "min": [
        0.9999997615814209,
        0.9999999403953552,
        0.9999996423721313
      ],
      "type": "VEC3"
    },
    {
      "bufferView": 6,
      "byteOffset": 6212,
      "componentType": 5126,
      "count": 79,
      "max": [
        3.2916667461395264
      ],
      "min": [
        0.0416666679084301
      ],
      "type": "SCALAR"
    },
    {
      "bufferView": 7,
      "byteOffset": 9156,
      "componentType": 5126,
      "count": 79,
      "max": [
        3.148254632949829,
        -21.482595443725586,
        -3.4183642864227295
      ],
      "min": [
        3.148254632949829,
        -21.851951599121094,
        -3.4183642864227295
      ],
      "type": "VEC3"
    },
    {
      "bufferView": 6,
      "byteOffset": 6528,
      "componentType": 5126,
      "count": 79,
      "max": [
        3.2916667461395264
      ],
      "min": [
        0.0416666679084301
      ],
      "type": "SCALAR"
    },
    {
      "bufferView": 8,
      "byteOffset": 12640,
      "componentType": 5126,
      "count": 79,
      "max": [
        0.4451802968978882,
        0.014294039458036423,
        0.892033040523529,
        0.9999988079071045
      ],
      "min": [
        -0.4462265968322754,
        -0.014260531403124332,
        -0.8941295742988586,
        0.03478364273905754
      ],
      "type": "VEC4"
    },
    {
      "bufferView": 6,
      "byteOffset": 6844,
      "componentType": 5126,
      "count": 78,
      "max": [
        3.2916667461395264
      ],
      "min": [
        0.0416666679084301
      ],
      "type": "SCALAR"
    },
    {
      "bufferView": 7,
      "byteOffset": 10104,
      "componentType": 5126,
      "count": 78,
      "max": [
        1.0000003576278687,
        1.0000003576278687,
        1.0000001192092896
      ],
      "min": [
        0.9999998211860657,
        0.9999997615814209,
        0.9999999403953552
      ],
      "type": "VEC3"
    },
    {
      "bufferView": 6,
      "byteOffset": 7156,
      "componentType": 5126,
      "count": 79,
      "max": [
        3.2916667461395264
      ],
      "min": [
        0.0416666679084301
      ],
      "type": "SCALAR"
    },
    {
      "bufferView": 8,
      "byteOffset": 13904,
      "componentType": 5126,
      "count": 79,
      "max": [
        -0.6138848066329956,
        0.33182448148727417,
        0.340681791305542,
        0.6688504815101624
      ],
      "min": [
        -0.6516663432121277,
        0.24958562850952148,
        0.2562752664089203,
        0.6300587058067322
      ],
      "type": "VEC4"
    },
    {
      "bufferView": 6,
      "byteOffset": 7472,
      "componentType": 5126,
      "count": 77,
      "max": [
        3.2916667461395264
      ],
      "min": [
        0.0416666679084301
      ],
      "type": "SCALAR"
    },
    {
      "bufferView": 7,
      "byteOffset": 11040,
      "componentType": 5126,
      "count": 77,
      "max": [
        1.0,
        1.0000001192092896,
        0.9999999403953552
      ],
      "min": [
        0.9999997615814209,
        0.9999996423721313,
        0.9999999403953552
      ],
      "type": "VEC3"
    },
    {
      "bufferView": 6,
      "byteOffset": 7780,
      "componentType": 5126,
      "count": 79,
      "max": [
        3.2916667461395264
      ],
      "min": [
        0.0416666679084301
      ],
      "type": "SCALAR"
    },
    {
      "bufferView": 8,
      "byteOffset": 15168,
      "componentType": 5126,
      "count": 79,
      "max": [
        0.20875969529151917,
        0.6975932717323303,
        0.7164926528930664,
        0.2146495133638382
      ],
      "min": [
        0.0005325511447153986,
        -0.6975927948951721,
        -0.7164937257766724,
        0.0003020607982762158
      ],
      "type": "VEC4"
    },
    {
      "bufferView": 6,
      "byteOffset": 8096,
      "componentType": 5126,
      "count": 78,
      "max": [
        3.2916667461395264
      ],
      "min": [
        0.0416666679084301
      ],
      "type": "SCALAR"
    },
    {
      "bufferView": 7,
      "byteOffset": 11964,
      "componentType": 5126,
      "count": 78,
      "max": [
        1.0000003576278687,
        1.0000005960464478,
        1.0000001192092896
      ],
      "min": [
        0.9999997615814209,
        0.9999997615814209,
        1.0000001192092896
      ],
      "type": "VEC3"
    },
    {
      "bufferView": 6,
      "byteOffset": 8408,
      "componentType": 5126,
      "count": 79,
      "max": [
        3.2916667461395264
      ],
      "min": [
        0.0416666679084301
      ],
      "type": "SCALAR"
    },
    {
      "bufferView": 7,
      "byteOffset": 12900,
      "componentType": 5126,
      "count": 79,
      "max": [
        -2.95810866355896,
        -9.826193809509277,
        0.0695641040802002
      ],
      "min": [
        -3.016115427017212,
        -9.82669448852539,
        0.04922064393758774
      ],
      "type": "VEC3"
    },
    {
      "bufferView": 6,
      "byteOffset": 8724,
      "componentType": 5126,
      "count": 6,
      "max": [
        3.2916667461395264
      ],
      "min": [
        0.0416666679084301
      ],
      "type": "SCALAR"
    },
    {
      "bufferView": 7,
      "byteOffset": 13848,
      "componentType": 5126,
      "count": 6,
      "max": [
        2.751603603363037,
        -9.826581954956055,
        1.9045597314834595
      ],
      "min": [
        2.751603364944458,
        -9.826581954956055,
        1.9045594930648804
      ],
      "type": "VEC3"
    },
    {
      "bufferView": 6,
      "byteOffset": 8748,
      "componentType": 5126,
      "count": 79,
      "max": [
        3.2916667461395264
      ],
      "min": [
        0.0416666679084301
      ],
      "type": "SCALAR"
    },
    {
      "bufferView": 8,
      "byteOffset": 16432,
      "componentType": 5126,
      "count": 79,
      "max": [
        -0.00198889197781682,
        0.6997853517532349,
        0.7142701745033264,
        0.1818217933177948
      ],
      "min": [
        -0.17909938097000122,
        -0.6998185515403748,
        -0.7143171429634094,
        0.0010086491238325834
      ],
      "type": "VEC4"
    },
    {
      "bufferView": 6,
      "byteOffset": 9064,
      "componentType": 5126,
      "count": 79,
      "max": [
        3.2916667461395264
      ],
      "min": [
        0.0416666679084301
      ],
      "type": "SCALAR"
    },
    {
      "bufferView": 7,
      "byteOffset": 13920,
      "componentType": 5126,
      "count": 79,
      "max": [
        1.0000003576278687,
        1.0000003576278687,
        1.0
      ],
      "min": [
        0.9999995231628418,
        0.9999996423721313,
        1.0
      ],
      "type": "VEC3"
    },
    {
      "bufferView": 6,
      "byteOffset": 9380,
      "componentType": 5126,
      "count": 4,
      "max": [
        3.2916667461395264
      ],
      "min": [
        0.0416666679084301
      ],
      "type": "SCALAR"
    },
    {
      "bufferView": 7,
      "byteOffset": 14868,
      "componentType": 5126,
      "count": 4,
      "max": [
        3.4850215911865234,
        -9.867035865783691,
        0.04508513957262039
      ],
      "min": [
        3.4850215911865234,
        -9.867035865783691,
        0.04508502781391144
      ],
      "type": "VEC3"
    },
    {
      "bufferView": 6,
      "byteOffset": 9396,
      "componentType": 5126,
      "count": 79,
      "max": [
        3.2916667461395264
      ],
      "min": [
        0.0416666679084301
      ],
      "type": "SCALAR"
    },
    {
      "bufferView": 8,
      "byteOffset": 17696,
      "componentType": 5126,
      "count": 79,
      "max": [
        0.5198099613189697,
        0.6993241906166077,
        -0.4773423671722412,
        0.5320571064949036
      ],
      "min": [
        0.0022744599264115095,
        0.46782153844833374,
        -0.7147927284240723,
        0.003440863685682416
      ],
      "type": "VEC4"
    },
    {
      "bufferView": 6,
      "byteOffset": 9712,
      "componentType": 5126,
      "count": 79,
      "max": [
        3.2916667461395264
      ],
      "min": [
        0.0416666679084301
      ],
      "type": "SCALAR"
    },
    {
      "bufferView": 7,
      "byteOffset": 14916,
      "componentType": 5126,
      "count": 79,
      "max": [
        1.000000238418579,
        1.000000238418579,
        1.0
      ],
      "min": [
        0.9999995231628418,
        0.9999995231628418,
        1.0
      ],
      "type": "VEC3"
    },
    {
      "bufferView": 6,
      "byteOffset": 10028,
      "componentType": 5126,
      "count": 79,
      "max": [
        3.2916667461395264
      ],
      "min": [
        0.0416666679084301
      ],
      "type": "SCALAR"
    },
    {
      "bufferView": 8,
      "byteOffset": 18960,
      "componentType": 5126,
      "count": 79,
      "max": [
        -0.11651232093572617,
        -0.5815702080726624,
        -0.6186570525169373,
        0.37852752208709717
      ],
      "min": [
        -0.36845144629478455,
        -0.6785317659378052,
        -0.7166416645050049,
        0.11155387759208679
      ],
      "type": "VEC4"
    },
    {
      "bufferView": 6,
      "byteOffset": 10344,
      "componentType": 5126,
      "count": 79,
      "max": [
        3.2916667461395264
      ],
      "min": [
        0.0416666679084301
      ],
      "type": "SCALAR"
    },
    {
      "bufferView": 7,
      "byteOffset": 15864,
      "componentType": 5126,
      "count": 79,
      "max": [
        1.000000238418579,
        1.000000238418579,
        1.0
      ],
      "min": [
        0.9999995231628418,
        0.9999995231628418,
        1.0
      ],
      "type": "VEC3"
    },
    {
      "bufferView": 6,
      "byteOffset": 10660,
      "componentType": 5126,
      "count": 79,
      "max": [
        3.2916667461395264
      ],
      "min": [
        0.0416666679084301
      ],
      "type": "SCALAR"
    },
    {
      "bufferView": 8,
      "byteOffset": 20224,
      "componentType": 5126,
      "count": 79,
      "max": [
        0.5487309098243713,
        -0.4179871678352356,
        0.5306909084320068,
        0.5724983811378479
      ],
      "min": [
        0.4731578528881073,
        -0.5019367337226868,
        0.4432004988193512,
        0.4924919903278351
      ],
      "type": "VEC4"
    },
    {
      "bufferView": 6,
      "byteOffset": 10976,
      "componentType": 5126,
      "count": 78,
      "max": [
        3.2916667461395264
      ],
      "min": [
        0.0416666679084301
      ],
      "type": "SCALAR"
    },
    {
      "bufferView": 7,
      "byteOffset": 16812,
      "componentType": 5126,
      "count": 78,
      "max": [
        1.0000003576278687,
        1.0000003576278687,
        0.9999998807907104
      ],
      "min": [
        0.9999995827674866,
        0.9999995827674866,
        0.9999998807907104
      ],
      "type": "VEC3"
    },
    {
      "bufferView": 6,
      "byteOffset": 11288,
      "componentType": 5126,
      "count": 79,
      "max": [
        3.2916667461395264
      ],
      "min": [
        0.0416666679084301
      ],
      "type": "SCALAR"
    },
    {
      "bufferView": 7,
      "byteOffset": 17748,
      "componentType": 5126,
      "count": 79,
      "max": [
        0.8940058350563049,
        1.7434064149856567,
        1.6527531147003174
      ],
      "min": [
        0.8940058350563049,
        0.9640504121780396,
        1.6527531147003174
      ],
      "type": "VEC3"
    }
  ],
  "animations": [
    {
      "channels": [
        {
          "sampler": 0,
          "target": {
            "node": 11,
            "path": "rotation"
          }
        },
        {
          "sampler": 1,
          "target": {
            "node": 11,
            "path": "scale"
          }
        },
        {
          "sampler": 2,
          "target": {
            "node": 12,
            "path": "rotation"
          }
        },
        {
          "sampler": 3,
          "target": {
            "node": 12,
            "path": "scale"
          }
        },
        {
          "sampler": 4,
          "target": {
            "node": 13,
            "path": "rotation"
          }
        },
        {
          "sampler": 5,
          "target": {
            "node": 13,
            "path": "scale"
          }
        },
        {
          "sampler": 6,
          "target": {
            "node": 14,
            "path": "translation"
          }
        },
        {
          "sampler": 7,
          "target": {
            "node": 14,
            "path": "rotation"
          }
        },
        {
          "sampler": 8,
          "target": {
            "node": 14,
            "path": "scale"
          }
        },
        {
          "sampler": 9,
          "target": {
            "node": 15,
            "path": "rotation"
          }
        },
        {
          "sampler": 10,
          "target": {
            "node": 15,
            "path": "scale"
          }
        },
        {
          "sampler": 11,
          "target": {
            "node": 16,
            "path": "translation"
          }
        },
        {
          "sampler": 12,
          "target": {
            "node": 17,
            "path": "rotation"
          }
        },
        {
          "sampler": 13,
          "target": {
            "node": 17,
            "path": "scale"
          }
        },
        {
          "sampler": 14,
          "target": {
            "node": 18,
            "path": "rotation"
          }
        },
        {
          "sampler": 15,
          "target": {
            "node": 18,
            "path": "scale"
          }
        },
        {
          "sampler": 16,
          "target": {
            "node": 19,
            "path": "rotation"
          }
        },
        {
          "sampler": 17,
          "target": {
            "node": 19,
            "path": "scale"
          }
        },
        {
          "sampler": 18,
          "target": {
            "node": 20,
            "path": "rotation"
          }
        },
        {
          "sampler": 19,
          "target": {
            "node": 20,
            "path": "scale"
          }
        },
        {
          "sampler": 20,
          "target": {
            "node": 21,
            "path": "rotation"
          }
        },
        {
          "sampler": 21,
          "target": {
            "node": 21,
            "path": "scale"
          }
        },
        {
          "sampler": 22,
          "target": {
            "node": 22,
            "path": "translation"
          }
        },
        {
          "sampler": 23,
          "target": {
            "node": 23,
            "path": "rotation"
          }
        },
        {
          "sampler": 24,
          "target": {
            "node": 23,
            "path": "scale"
          }
        },
        {
          "sampler": 25,
          "target": {
            "node": 24,
            "path": "rotation"
          }
        },
        {
          "sampler": 26,
          "target": {
            "node": 24,
            "path": "scale"
          }
        },
        {
          "sampler": 27,
          "target": {
            "node": 25,
            "path": "rotation"
          }
        },
        {
          "sampler": 28,
          "target": {
            "node": 25,
            "path": "scale"
          }
        },
        {
          "sampler": 29,
          "target": {
            "node": 26,
            "path": "translation"
          }
        },
        {
          "sampler": 30,
          "target": {
            "node": 28,
            "path": "translation"
          }
        },
        {
          "sampler": 31,
          "target": {
            "node": 28,
            "path": "rotation"
          }
        },
        {
          "sampler": 32,
          "target": {
            "node": 28,
            "path": "scale"
          }
        },
        {
          "sampler": 33,
          "target": {
            "node": 29,
            "path": "translation"
          }
        },
        {
          "sampler": 34,
          "target": {
            "node": 29,
            "path": "rotation"
          }
        },
        {
          "sampler": 35,
          "target": {
            "node": 29,
            "path": "scale"
          }
        },
        {
          "sampler": 36,
          "target": {
            "node": 30,
            "path": "rotation"
          }
        },
        {
          "sampler": 37,
          "target": {
            "node": 30,
            "path": "scale"
          }
        },
        {
          "sampler": 38,
          "target": {
            "node": 31,
            "path": "rotation"
          }
        },
        {
          "sampler": 39,
          "target": {
            "node": 31,
            "path": "scale"
          }
        },
        {
          "sampler": 40,
          "target": {
            "node": 3,
            "path": "translation"
          }
        }
      ],
      "name": "Animation",
      "samplers": [
        {
          "input": 11,
          "interpolation": "LINEAR",
          "output": 12
        },
        {
          "input": 13,
          "interpolation": "LINEAR",
          "output": 14
        },
        {
          "input": 15,
          "interpolation": "LINEAR",
          "output": 16
        },
        {
          "input": 17,
          "interpolation": "LINEAR",
          "output": 18
        },
        {
          "input": 19,
          "interpolation": "LINEAR",
          "output": 20
        },
        {
          "input": 21,
          "interpolation": "LINEAR",
          "output": 22
        },
        {
          "input": 23,
          "interpolation": "LINEAR",
          "output": 24
        },
        {
          "input": 25,
          "interpolation": "LINEAR",
          "output": 26
        },
        {
          "input": 27,
          "interpolation": "LINEAR",
          "output": 28
        },
        {
          "input": 29,
          "interpolation": "LINEAR",
          "output": 30
        },
        {
          "input": 31,
          "interpolation": "LINEAR",
          "output": 32
        },
        {
          "input": 33,
          "interpolation": "LINEAR",
          "output": 34
        },
        {
          "input": 35,
          "interpolation": "LINEAR",
          "output": 36
        },
        {
          "input": 37,
          "interpolation": "LINEAR",
          "output": 38
        },
        {
          "input": 39,
          "interpolation": "LINEAR",
          "output": 40
        },
        {
          "input": 41,
          "interpolation": "LINEAR",
          "output": 42
        },
        {
          "input": 43,
          "interpolation": "LINEAR",
          "output": 44
        },
        {
          "input": 45,
          "interpolation": "LINEAR",
          "output": 46
        },
        {
          "input": 47,
          "interpolation": "LINEAR",
          "output": 48
        },
        {
          "input": 49,
          "interpolation": "LINEAR",
          "output": 50
        },
        {
          "input": 51,
          "interpolation": "LINEAR",
          "output": 52
        },
        {
          "input": 53,
          "interpolation": "LINEAR",
          "output": 54
        },
        {
          "input": 55,
          "interpolation": "LINEAR",
          "output": 56
        },
        {
          "input": 57,
          "interpolation": "LINEAR",
          "output": 58
        },
        {
          "input": 59,
          "interpolation": "LINEAR",
          "output": 60
        },
        {
          "input": 61,
          "interpolation": "LINEAR",
          "output": 62
        },
        {
          "input": 63,
          "interpolation": "LINEAR",
          "output": 64
        },
        {
          "input": 65,
          "interpolation": "LINEAR",
          "output": 66
        },
        {
          "input": 67,
          "interpolation": "LINEAR",
          "output": 68
        },
        {
          "input": 69,
          "interpolation": "LINEAR",
          "output": 70
        },
        {
          "input": 71,
          "interpolation": "LINEAR",
          "output": 72
        },
        {
          "input": 73,
          "interpolation": "LINEAR",
          "output": 74
        },
        {
          "input": 75,
          "interpolation": "LINEAR",
          "output": 76
        },
        {
          "input": 77,
          "interpolation": "LINEAR",
          "output": 78
        },
        {
          "input": 79,
          "interpolation": "LINEAR",
          "output": 80
        },
        {
          "input": 81,
          "interpolation": "LINEAR",
          "output": 82
        },
        {
          "input": 83,
          "interpolation": "LINEAR",
          "output": 84
        },
        {
          "input": 85,
          "interpolation": "LINEAR",
          "output": 86
        },
        {
          "input": 87,
          "interpolation": "LINEAR",
          "output": 88
        },
        {
          "input": 89,
          "interpolation": "LINEAR",
          "output": 90
        },
        {
          "input": 91,
          "interpolation": "LINEAR",
          "output": 92
        }
      ]
    }
  ],
  "asset": {
    "extras": {
      "author": "ViniVincenzo (https://sketchfab.com/ViniVincenzo)",
      "license": "CC-BY-4.0 (http://creativecommons.org/licenses/by/4.0/)",
      "source": "https://sketchfab.com/3d-models/flying-tower-579ed1df769b4357b9d3159aa998624f",
      "title": "Flying Tower"
    },
    "generator": "Sketchfab-13.42.0",
    "version": "2.0"
  },
  "bufferViews": [
    {
      "buffer": 0,
      "byteLength": 254624,
      "byteStride": 8,
      "name": "shortBufferViews",
      "target": 34962
    },
    {
      "buffer": 0,
      "byteLength": 197064,
      "byteOffset": 254624,
      "name": "floatBufferViews",
      "target": 34963
    },
    {
      "buffer": 0,
      "byteLength": 254816,
      "byteOffset": 451688,
      "byteStride": 8,
      "name": "floatBufferViews",
      "target": 34962
    },
    {
      "buffer": 0,
      "byteLength": 764448,
      "byteOffset": 706504,
      "byteStride": 12,
      "name": "floatBufferViews",
      "target": 34962
    },
    {
      "buffer": 0,
      "byteLength": 509248,
      "byteOffset": 1470952,
      "byteStride": 16,
      "name": "floatBufferViews",
      "target": 34962
    },
    {
      "buffer": 0,
      "byteLength": 1472,
      "byteOffset": 1980200,
      "name": "floatBufferViews"
    },
    {
      "buffer": 0,
      "byteLength": 11604,
      "byteOffset": 1981672,
      "name": "floatBufferViews"
    },
    {
      "buffer": 0,
      "byteLength": 18696,
      "byteOffset": 1993276,
      "byteStride": 12,
      "name": "floatBufferViews"
    },
    {
      "buffer": 0,
      "byteLength": 21488,
      "byteOffset": 2011972,
      "byteStride": 16,
      "name": "floatBufferViews"
    }
  ],
  "buffers": [
    {
      "byteLength": 2033460,
      "uri": "scene.bin"
    }
  ],
  "images": [
    {
      "uri": "textures/Material.002_baseColor.png"
    },
    {
      "uri": "textures/Material.002_emissive.png"
    }
  ],
  "materials": [
    {
      "doubleSided": true,
      "name": "material_0",
      "pbrMetallicRoughness": {
        "metallicFactor": 0.0,
        "roughnessFactor": 0.6
      }
    },
    {
      "doubleSided": true,
      "emissiveFactor": [
        1.0,
        1.0,
        1.0
      ],
      "emissiveTexture": {
        "index": 1
      },
      "name": "Material.002",
      "pbrMetallicRoughness": {
        "baseColorTexture": {
          "index": 0
        },
        "metallicFactor": 0.0
      }
    }
  ],
  "meshes": [
    {
      "name": "Object_0",
      "primitives": [
        {
          "attributes": {
            "NORMAL": 1,
            "POSITION": 0,
            "TEXCOORD_0": 2
          },
          "indices": 3,
          "material": 0,
          "mode": 4
        }
      ]
    },
    {
      "name": "Object_1",
      "primitives": [
        {
          "attributes": {
            "JOINTS_0": 9,
            "NORMAL": 5,
            "POSITION": 4,
            "TEXCOORD_0": 6,
            "WEIGHTS_0": 10
          },
          "indices": 7,
          "material": 1,
          "mode": 4
        }
      ]
    }
  ],
  "nodes": [
    {
      "children": [
        1
      ],
      "matrix": [
        1.0,
        0.0,
        0.0,
        0.0,
        0.0,
        2.220446049250313e-16,
        -1.0,
        0.0,
        0.0,
        1.0,
        2.220446049250313e-16,
        0.0,
        0.0,
        0.0,
        0.0,
        1.0
      ],
      "name": "Sketchfab_model"
    },
    {
      "children": [
        2
      ],
      "name": "root"
    },
    {
      "children": [
        3
      ],
      "matrix": [
        1.0,
        0.0,
        0.0,
        0.0,
        0.0,
        2.220446049250313e-16,
        1.0,
        0.0,
        0.0,
        -1.0,
        2.220446049250313e-16,
        0.0,
        0.0,
        0.0,
        0.0,
        1.0
      ],
      "name": "GLTF_SceneRootNode"
    },
    {
      "children": [
        4,
        5
      ],
      "name": "TowerController_32",
      "scale": [
        0.2277768850326538,
        0.2277768850326538,
        0.2277768850326538
      ],
      "translation": [
        0.8940058350563049,
        0.9640504717826843,
        1.6527531147003174
      ]
    },
    {
      "mesh": 0,
      "name": "Object_4"
    },
    {
      "children": [
        6
      ],
      "matrix": [
        -7.401427030472989e-07,
        0.0,
        -4.390261173248229,
        0.0,
        0.0,
        4.390261173248291,
        0.0,
        0.0,
        4.390261173248229,
        0.0,
        -7.401427030472989e-07,
        0.0,
        -0.6169509887695313,
        -5.845259666442871,
        -9.361215591430664,
        1.0
      ],
      "name": "Tower_31"
    },
    {
      "children": [
        7,
        9,
        8
      ],
      "name": "GLTF_created_0"
    },
    {
      "children": [
        10
      ],
      "name": "GLTF_created_0_rootJoint"
    },
    {
      "name": "Cylinder.007_22"
    },
    {
      "mesh": 1,
      "name": "Object_9",
      "skin": 0
    },
    {
      "children": [
        11,
        12,
        13,
        14,
        15,
        16,
        18,
        19,
        20,
        21,
        22,
        24,
        25,
        26,
        27,
        28,
        29,
        30,
        31
      ],
      "name": "ROOT_21",
      "translation": [
        0.2012757807970047,
        20.12514877319336,
        0.41094499826431274
      ]
    },
    {
      "name": "WingAbove.L_0",
      "rotation": [
        0.712999165058136,
        -3.7115069062565453e-07,
        -3.649904840585805e-07,
        0.701164960861206
      ],
      "scale": [
        1.0,
        0.9999999403953552,
        0.9999999403953552
      ],
      "translation": [
        -2.050076961517334,
        -20.493804931640625,
        8.083515167236328
      ]
    },
    {
      "name": "WingsUnder.L_1",
      "rotation": [
        0.7104503512382507,
        -2.851316480700916e-07,
        -2.82441476429085e-07,
        0.7037473917007446
      ],
      "translation": [
        -2.049111843109131,
        -24.230253219604492,
        5.083759784698486
      ]
    },
    {
      "name": "TurbineAbove.L_2",
      "rotation": [
        -0.010057548992335796,
        -0.00840615015476942,
        -0.7062198519706726,
        0.7078712582588196
      ],
      "scale": [
        1.0,
        0.9999999403953552,
        1.0
      ],
      "translation": [
        3.2238645553588867,
        -20.527368545532227,
        5.984106063842773
      ]
    },
    {
      "name": "TurbineUnder.L_3",
      "rotation": [
        -0.03210993483662605,
        -0.038578279316425323,
        -0.7094423174858093,
        0.7029739618301392
      ],
      "scale": [
        0.9999999403953552,
        1.0,
        0.9999999403953552
      ],
      "translation": [
        0.9187902808189392,
        -24.22823143005371,
        3.8988656997680664
      ]
    },
    {
      "name": "TurbineMain_4",
      "rotation": [
        0.0024541085585951805,
        0.0022799409925937653,
        -0.7070157527923584,
        0.7071899175643921
      ],
      "scale": [
        0.9999999403953552,
        1.0,
        0.9999999403953552
      ],
      "translation": [
        7.1422810554504395,
        -20.808740615844727,
        -0.44484567642211914
      ]
    },
    {
      "children": [
        17
      ],
      "name": "Locator.L_6",
      "translation": [
        3.1579456329345703,
        -21.43041229248047,
        2.5954055786132813
      ]
    },
    {
      "name": "Wheel.L_5",
      "rotation": [
        -0.0006366100860759616,
        -0.03524838760495186,
        0.0015951871173456311,
        0.9993771314620972
      ],
      "translation": [
        1.4060635566711426,
        0.020331382751464844,
        0.1800072193145752
      ]
    },
    {
      "name": "WingAbove.R_7",
      "rotation": [
        -0.5044369697570801,
        -0.4955233037471771,
        0.5044366121292114,
        0.49552375078201294
      ],
      "scale": [
        0.9999998211860657,
        0.9999997019767761,
        0.9999998807907104
      ],
      "translation": [
        -2.0597686767578125,
        -20.493804931640625,
        -8.906474113464355
      ]
    },
    {
      "name": "WingsUnder.R_8",
      "rotation": [
        -1.754224143724059e-07,
        -0.6964052319526672,
        0.7176488637924194,
        3.0893619396010763e-07
      ],
      "scale": [
        1.0,
        0.9999999403953552,
        0.9999999403953552
      ],
      "translation": [
        -2.058803081512451,
        -24.230253219604492,
        -5.824143409729004
      ]
    },
    {
      "name": "TurbineAbove.R_9",
      "rotation": [
        0.5185626149177551,
        0.4941392242908478,
        -0.48072120547294617,
        0.5057928562164307
      ],
      "translation": [
        3.2141733169555664,
        -20.527368545532227,
        -6.856609344482422
      ]
    },
    {
      "name": "TurbineUnder.R_10",
      "rotation": [
        0.52513188123703,
        0.5237088799476624,
        -0.4757249057292938,
        0.47291800379753113
      ],
      "scale": [
        0.9999999403953552,
        1.0,
        1.0
      ],
      "translation": [
        0.909099280834198,
        -24.22823143005371,
        -4.573190212249756
      ]
    },
    {
      "children": [
        23
      ],
      "name": "Locator.R_12",
      "translation": [
        3.148254632949829,
        -21.5353946685791,
        -3.4183642864227295
      ]
    },
    {
      "name": "Wheel.R_11",
      "rotation": [
        0.0006773534696549177,
        -2.1697762349504046e-05,
        0.0013572516618296504,
        0.999998927116394
      ],
      "translation": [
        1.4060633182525635,
        0.020331382751464844,
        -0.1800079345703125
      ]
    },
    {
      "name": "wdw2r_13",
      "rotation": [
        -0.6516663432121277,
        0.24958567321300507,
        0.25627532601356506,
        0.6688505411148071
      ],
      "scale": [
        1.0,
        0.9999998211860657,
        0.9999999403953552
      ],
      "translation": [
        -2.3335444927215576,
        -16.375802993774414,
        0.0035454477183520794
      ]
    },
    {
      "name": "wddw2l_14",
      "rotation": [
        0.20773126184940338,
        -0.6659461855888367,
        0.6839161515235901,
        0.2135932594537735
      ],
      "scale": [
        1.0000003576278687,
        1.000000238418579,
        1.0000001192092896
      ],
      "translation": [
        -1.8113703727722168,
        -16.416255950927734,
        -1.4756853580474854
      ]
    },
    {
      "name": "wdw1r_15",
      "rotation": [
        -0.6899723410606384,
        -0.11699645966291428,
        -0.1204267218708992,
        0.704093337059021
      ],
      "scale": [
        1.0,
        0.9999999403953552,
        1.0
      ],
      "translation": [
        -2.9596986770629883,
        -9.826679229736328,
        0.0690065249800682
      ]
    },
    {
      "name": "wdw1l_16",
      "rotation": [
        0.6880373954772949,
        -0.1251557320356369,
        0.12902283668518066,
        0.7030602693557739
      ],
      "scale": [
        1.0,
        0.9999998807907104,
        1.0
      ],
      "translation": [
        -2.2377049922943115,
        -9.867034912109375,
        -1.7944761514663696
      ]
    },
    {
      "name": "wdw4l_17",
      "rotation": [
        -0.05045422166585922,
        -0.6980001926422119,
        -0.7125319838523865,
        0.050480566918849945
      ],
      "scale": [
        1.000000238418579,
        1.000000238418579,
        1.0
      ],
      "translation": [
        2.751603364944458,
        -9.826581954956055,
        1.9045597314834595
      ]
    },
    {
      "name": "wdw4r_18",
      "rotation": [
        0.2482890486717224,
        0.6537675261497498,
        -0.6678356528282166,
        0.2548256814479828
      ],
      "scale": [
        0.9999998211860657,
        0.9999998807907104,
        1.0
      ],
      "translation": [
        3.4850215911865234,
        -9.867035865783691,
        0.04508502781391144
      ]
    },
    {
      "name": "wdw3r_19",
      "rotation": [
        -0.3680294454097748,
        -0.5818374156951904,
        -0.6189314723014832,
        0.37807855010032654
      ],
      "scale": [
        1.0,
        0.9999998807907104,
        1.0
      ],
      "translation": [
        0.07377767562866211,
        -13.287249565124512,
        2.53774094581604
      ]
    },
    {
      "name": "wdw3l_20",
      "rotation": [
        0.5485146045684814,
        -0.41827094554901123,
        0.44349661469459534,
        0.5722691416740417
      ],
      "scale": [
        1.0000003576278687,
        1.000000238418579,
        0.9999999403953552
      ],
      "translation": [
        -1.4128786325454712,
        -13.327702522277832,
        2.0370986461639404
      ]
    }
  ],
  "samplers": [
    {
      "magFilter": 9729,
      "minFilter": 9987,
      "wrapS": 10497,
      "wrapT": 10497
    }
  ],
  "scene": 0,
  "scenes": [
    {
      "name": "Sketchfab_Scene",
      "nodes": [
        0
      ]
    }
  ],
  "skins": [
    {
      "inverseBindMatrices": 8,
      "joints": [
        7,
        10,
        11,
        12,
        13,
        14,
        15,
        16,
        17,
        18,
        19,
        20,
        21,
        22,
        23,
        24,
        25,
        26,
        27,
        28,
        29,
        30,
        31
      ],
      "skeleton": 7
    }
  ],
  "textures": [
    {
      "sampler": 0,
      "source": 0
    },
    {
      "sampler": 0,
      "source": 1
    }
  ]
}
